<svg xmlns="http://www.w3.org/2000/svg" viewBox="0 0 64 64" id="makeup"><g><path d="M50.88 11.22C50.79 11 48.51 7 39.91 7c-8.41 0-10.63 4.06-10.72 4.23a1 1 0 0 0 0 .84L35 26.52V56a1 1 0 0 0 1 1h8a1 1 0 0 0 1-1V26.71l5.93-14.64A1 1 0 0 0 50.88 11.22zM43 29.15H37V27.46h6zm0 2V51.31H37V31.15zM37 55V53.31h6V55zm6.35-29.54H36.73L31.21 11.83c.65-.76 2.72-2.58 7.67-2.81L39 18a1 1 0 0 0 1 1h0a1 1 0 0 0 1-1l-.12-9c5.14.21 7.3 2.05 8 2.82zM28 37H27V20a1 1 0 0 0-1-1H25V8a1 1 0 0 0-1.54-.84l-6 3.84a1 1 0 0 0-.46.84V19H16a1 1 0 0 0-1 1V37H14a1 1 0 0 0-1 1V56a1 1 0 0 0 1 1H28a1 1 0 0 0 1-1V38A1 1 0 0 0 28 37zM17 21h8V37H17zM16 39H27V51.63H15V39zM15 55V53.63H27V55z"></path><path d="M22,17a1,1,0,0,1-1-1V12.31a1,1,0,0,1,2,0V16A1,1,0,0,1,22,17Z"></path></g></svg>